<svg version="1.0" xmlns="http://www.w3.org/2000/svg" width="821.333" height="821.333" viewBox="0 0 616 616"><path d="M281.5 1.1c-60.3 5.3-118.8 28.8-166.7 67.1-13.2 10.5-36.1 33.4-46.6 46.6C29.4 163.4 6.4 221.2 1 283.5c-4.9 58.4 8.9 122.6 37.5 173.6 64.1 114.2 190 175.4 318.5 154.8 111.7-17.8 204.9-96.2 241.9-203.3 34.7-100.4 15.6-210.3-51.1-293.8-10.5-13.2-33.4-36.1-46.6-46.6C439 18.5 359.7-5.7 281.5 1.1m39.2 90.4c2.7.8 6.7 2.8 8.9 4.3 7.5 5.4 37.5 26 100.9 69.2 13.2 9 34.1 23.3 46.5 31.8 69.6 47.9 68.3 46.9 72.2 55.6 2.3 5 2.3 5.8 2.6 45.5.3 46.8.2 47.8-7.7 56.2-2.7 2.8-20 15.2-42.6 30.5-20.9 14.1-45.6 31-55 37.4-9.3 6.4-31.6 21.8-49.5 34-17.9 12.3-41 28.2-51.3 35.3-20.3 14-25.9 16.7-34 16.7-6.8 0-12.4-2.7-27.4-13.1-6.6-4.6-23.3-16.1-37.2-25.4-13.8-9.4-31.8-21.5-39.9-27.1-8.1-5.5-38.7-26.4-68.1-46.5-29.3-20-55.1-37.9-57.2-39.8-2.2-1.8-5.2-5.6-6.7-8.5l-2.7-5.1v-85l2.7-5.5c1.5-3.1 4.1-6.9 5.8-8.5 3.4-3.3 30.9-22.4 82-57.1 18.4-12.6 54.7-37.2 80.5-54.8 25.9-17.6 49.2-33.5 51.8-35.3 8.7-5.9 16.6-7.4 25.4-4.8"/><path d="M305 149.7c-3 1.6-16 9.9-28.8 18.5l-23.3 15.6 8.3 5.9c12.6 9 31.4 22 62.8 43.3 15.7 10.6 37.5 25.5 48.5 33s27.1 18.5 35.8 24.4c8.6 5.9 15.5 11.1 15.2 11.6s-38.5 26.2-84.8 57.1-84.3 56.3-84.4 56.4c-.5.3 49.3 33.2 52 34.3 4.4 1.9 9.4 1.4 15-1.4 2.9-1.4 18.5-11.7 34.7-22.9s41.4-28.5 56-38.4 34.2-23.2 43.5-29.5c23.8-16.2 29.1-22.4 33.7-39.4 2.6-9.9 2.8-26.9.5-36.2-2.6-9.9-8.9-21.8-14.4-27.2-2.6-2.5-18.5-14-35.3-25.4-63.9-43.6-114.4-77.4-118.5-79.4-7.2-3.5-10.3-3.5-16.5-.3"/><path d="M186.5 228.1c-18.2 12.2-34.5 23.5-36.4 25.3-17.4 16.1-22.4 52.5-10.7 77 5.8 12 7.5 13.4 63.5 50.9 9.5 6.5 17.7 11.7 18.1 11.7.5 0 1.2-1.5 1.5-3.3 1.2-5.4 5.1-12 9.7-16.4 2.3-2.2 27.1-19.5 55.1-38.3 27.9-18.8 50.7-34.4 50.7-34.8-.1-.4-2.7-2.3-5.8-4.3-15.7-10-98.1-66.5-101-69.2-4.1-3.9-7.9-11.1-8.8-16.6-.4-2.3-1.2-4.1-1.8-4.1-.7 0-16 10-34.1 22.1"/></svg>