<svg xmlns="http://www.w3.org/2000/svg" width="911" height="911" style="shape-rendering:geometricPrecision;text-rendering:geometricPrecision;image-rendering:optimizeQuality;fill-rule:evenodd;clip-rule:evenodd"><path style="opacity:.991" fill="#fefffe" d="M425.5-.5h40q209.076 8.415 343.5 168 127.259 164.028 94 370Q863.058 732.33 697.5 841q-188.433 112.588-397 43Q133.654 821.65 50 664.5 5.996 577.47-.5 480.5v-49Q16.152 213.404 190.5 83q106.321-72.86 235-83.5m20 130q17.778-1.965 32 8.5a40064 40064 0 0 1 279 192q12.879 9.509 13.5 25.5 1 56 0 112-7.099 14.1-20.5 22.5a17851 17851 0 0 0-257 176l-26 16q-19.859 6.908-37-5a31284 31284 0 0 1-278-190q-9.315-6.813-15.5-16.5a81.5 81.5 0 0 1-3-21 2351 2351 0 0 1 0-97 118 118 0 0 1 10-18 568 568 0 0 1 31.5-23.5l256-174q7.236-4.619 15-7.5m-108 585q8.888-.063 11 8.5-1.837 8.087-10 9.5-12.085-4.158-5.5-15a29 29 0 0 0 4.5-3m248 1h15v81a85 85 0 0 1-13-.5q-1.32-2.034-1-4.5a87.8 87.8 0 0 1-18.5 7q-31.226-6.874-26-39 6.04-23.883 30.5-22.5a214 214 0 0 1 14 6.5q.165-14.031-1-28m-335 1q17.918-1.275 32 9.5a167 167 0 0 1-10 11.5q-19.446-13.161-35.5 4-11.428 21.277 6.5 37.5 15.684 7.583 30-2.5 6.123 3.863 11 9.5-15.667 14.547-37 11-26.909-6.91-30.5-34.5-1.899-36.74 33.5-46m65 20a21.1 21.1 0 0 1 9 1 53.8 53.8 0 0 1 1 14 57.4 57.4 0 0 0-15 1.5q-2.25 1.25-3.5 3.5a288.5 288.5 0 0 0-1.5 40h-15v-59a85 85 0 0 1 13 .5q1.255 1.517 1 3.5 6.123-1.314 11-5m56 0q15.636-1.844 27 8.5-2.668 6.167-8.5 9.5a53.4 53.4 0 0 0-14.5-5q-10.432 2.155-2 8.5a125.3 125.3 0 0 1 20 9q11.88 14.692-3 27-18.525 7.996-35-4-1.611-1.109-2-3 3.231-5.232 8.5-8.5 7.09 5.545 16 7 10.401-1.904 3.5-9.5a294 294 0 0 0-18-7q-15.865-14.136 0-29 3.987-2.217 8-3.5m62 0q15.109-2.572 21.5 11a299 299 0 0 1 2.5 49h-15a303 303 0 0 0-1.5-40q-2.025-6.141-8.5-5-6.797-.475-10.5 5a312 312 0 0 0-1.5 40h-14a746 746 0 0 0-2-58 38.1 38.1 0 0 1 15-.5 26.6 26.6 0 0 0 2 3.5q6.149-2.588 12-5m49 0q15.415-1.478 27 8.5-3.406 5.608-8.5 9.5a46.3 46.3 0 0 0-13.5-5q-8.07.274-6 7.5a57.8 57.8 0 0 0 16 6q21.376 12.147 5 31-22.317 9.622-40-7l9.5-9.5q8.624 8.375 20.5 6.5 5.182-2.855 1-7a227 227 0 0 1-22-10q-11.199-10.986-1.5-23.5 5.592-4.915 12.5-7m150 0q25.73-2.756 33.5 22a100 100 0 0 1 1.5 14 458 458 0 0 0-42.5 1q1.034 8.236 9.5 10.5 11.334 1.555 19.5-6.5l7 9q1 1.5 0 3-24.74 17.712-46-4-14.44-23.825 5.5-43.5 5.676-3.793 12-5.5m-301 1h16v60a97 97 0 0 0-16-1zm337 0a57.2 57.2 0 0 1 15 1 436 436 0 0 0 16 38 833 833 0 0 0 15.5-37l1.5-1.5a38.1 38.1 0 0 1 15 .5 2218 2218 0 0 0-24 59 65 65 0 0 1-16-1 738 738 0 0 1-23-59m-145 43q8.947.149 13 8.5-3.846 6.348-10.5 9.5-7.075-2.824-9.5-10 2.457-4.954 7-8"/><path style="opacity:.985" fill="#fefffe" d="M449.5 204.5q12.734-.006 23 7.5a9730 9730 0 0 1 195 133q29.425 30.908 23.5 73.5-2.463 38.205-34.5 58.5a27667 27667 0 0 0-185 126q-8.874 5.44-19 7.5a42.4 42.4 0 0 1-11-3.5 1619 1619 0 0 1-64-42q-2.26-1.256-1.5-3.5a80707 80707 0 0 0 224.5-151 12857 12857 0 0 0-192-131.5 1050 1050 0 0 1-35-26 652 652 0 0 1 76-48.5"/><path style="opacity:.988" fill="#fefffe" d="M330.5 281.5a247 247 0 0 0 7.5 20 57.2 57.2 0 0 0 8.5 9.5l141 97.5a217 217 0 0 1-16 12.5 4052 4052 0 0 0-123 83 70.6 70.6 0 0 0-9.5 10.5 750 750 0 0 0-8.5 18 1666 1666 0 0 1-91-61.5q-21.932-18.6-25.5-47.5-5.865-40.03 17-73a1125 1125 0 0 1 99.5-69"/><path style="opacity:.869" fill="#fefffe" d="M635.5 749.5q10.058-1.245 15.5 7 1 1.5 0 3-12.612 3.71-25.5.5-1.552-2.26.5-4.5 4.264-3.995 9.5-6"/><path style="opacity:.941" fill="#fefffe" d="M567.5 751.5q22.914.8 16.5 23-5.602 13.548-19.5 7.5-12.032-8.465-6.5-22.5 3.242-6.007 9.5-8"/></svg> 