<svg version="1.0" xmlns="http://www.w3.org/2000/svg" width="64" height="64" viewBox="0 0 683 683"><path d="M320 .6c-1.9.2-8.4.9-14.4 1.4-55 5.4-114 27.4-159.9 59.7-23.2 16.3-54 45.2-70.3 65.8C33.9 180 9.8 238.3 1.8 305.5c-1.7 14.3-1.7 57.7 0 72 8 67.3 32.2 125.7 73.6 178 9.7 12.2 32.9 36 45.1 46.3 52.8 44.5 114.8 71.1 185 79.4 14.3 1.7 57.7 1.7 72 0 70.2-8.3 132.2-34.9 185-79.4 12.2-10.3 35.4-34.1 45.1-46.3 41.4-52.3 65.6-110.7 73.6-178 1.7-14.3 1.7-57.7 0-72-8-67.2-32.1-125.5-73.6-178-10.2-12.9-39.2-41.9-52.1-52.1C503.3 34.1 445 9.9 378.5 1.9c-9.2-1-52.1-2-58.5-1.3M350.8 99c2.4 1.1 10 5.9 17 10.8 14.9 10.4 41.7 28.8 76.7 52.5 28.8 19.6 50.2 34.2 80.5 55.2 11.8 8.2 26.3 18.2 32.2 22.2 5.9 4.1 12.5 9.4 14.7 11.9 7.2 8.1 7.2 8.7 6.9 56.5l-.3 42.4-2.7 4.5c-1.4 2.5-4.1 5.9-6 7.6-1.8 1.7-18.1 13.1-36.3 25.4-43.1 29.2-103.1 70.3-149.3 102.3-15.1 10.4-29.8 20-32.7 21.3-6.4 3-16.2 3.4-21.9 1-2-.8-11.4-6.9-20.9-13.4s-33.4-22.8-53.2-36.2-40.7-27.6-46.5-31.5c-5.8-4-30.1-20.6-54-36.9-24.4-16.7-45.3-31.6-47.7-34.2-7.6-8.2-7.8-9.4-7.8-54.9v-40l2.8-6.1c1.6-3.4 4.5-7.7 6.5-9.6 4.1-3.9 54.7-38.8 143.2-98.8 76.2-51.8 76-51.6 79.5-52.8 5.1-1.8 14.6-1.4 19.3.8M260 538.2c2.7 2.9 2.5 6.4-.5 9.3-4.5 4.6-11.5 1.9-11.5-4.5 0-6.3 7.7-9.4 12-4.8m-53.2 2.6c3.1 1.6 5.7 3.4 5.7 3.9 0 .6-1.7 2.9-3.7 5.1L205 554l-3.7-2.2c-8.5-5.1-20.3-1.4-24.4 7.5-3.7 8.3-1.8 17.6 5 24.1 5.2 5 15 4.7 22.3-.6 1.6-1.1 2.4-.7 6 2.9l4.2 4.2-2.5 2.1c-9.4 8.2-24.9 9.5-35.4 3-4.6-2.9-9.3-8.4-11.7-13.9-2.9-6.6-3-18.9-.1-25.2 7.5-16.6 26-23.2 42.1-15.1M451 567.5V598h-5.5c-4.8 0-5.5-.2-5.5-2 0-2.5-.2-2.5-4.6.5-8.6 5.9-21.7 1.6-27.1-8.9-2.2-4.3-2.8-14.6-1.2-20.3 1.7-6.2 8.1-12.7 14.1-14.4 5.1-1.4 12 0 15.4 3.2 1.1 1 2.4 1.9 2.8 1.9.5 0 .7-4.7.4-10.5l-.5-10.5H451zm-207.6-14.9c1.2.5 1.6 2 1.6 6.3v5.6h-5.4c-3.9 0-6 .5-7.5 1.9-2 1.8-2.1 2.9-2.1 16.8V598h-12v-45h5.5c4.7 0 5.5.3 5.5 1.9 0 1.7.3 1.7 4.7-.5 4.8-2.5 6.9-2.9 9.7-1.8m51.5 2.6c2.4 1.3 4.6 2.9 4.8 3.5.3.7-1.1 2.8-2.9 4.9l-3.4 3.6-4.2-2.1c-4.9-2.5-10-2.8-10.9-.5s2.4 4.8 9.2 6.8c8.2 2.5 12.5 6.9 12.5 12.7 0 12.7-13.6 18.6-27.5 12.1-8.9-4.2-9.4-5.3-4.6-9.1l3.9-3.1 4.3 2.5c5.2 2.9 10.4 3.3 11.8.8 1.6-3-.6-5-8-7.3-9.5-2.9-12.9-6.1-12.9-12.5 0-4.8 1.7-9.2 4.4-11.4 5.4-4.5 15.7-4.9 23.5-.9m41.1-1.4c6.3 3.4 7.4 7.4 7.8 26.9l.4 17.3H332v-14.1c0-13.5-.7-17.3-3.4-19.1-2.1-1.4-7.4-.8-9.7 1.1-2.2 1.7-2.3 2.6-2.7 17l-.4 15.1H305v-6.8c0-3.7-.3-13.8-.7-22.5l-.6-15.7h6.1c4.8 0 6.2.3 6.2 1.5 0 1.9-.1 1.9 5.1-.5 5.5-2.5 10.5-2.5 14.9-.2m36-.7c2.8.6 6.4 2.2 8 3.6l3 2.5-2.7 3.6c-1.5 2-2.9 3.9-3 4.1-.2.3-2.1-.6-4.3-1.8-5.1-2.8-11.4-2.6-11.8.4-.3 2.5 1.6 3.7 9.2 5.9 4 1.2 7.1 2.9 9.4 5.2 3.3 3.3 3.4 3.7 3 8.9-.7 8.8-6.6 13.5-16.8 13.5-5.7 0-10.8-1.8-15.8-5.6l-3.4-2.6 3.8-3.9 3.7-3.8 2.8 2c5.9 4.2 12.9 4.9 14.2 1.4.9-2.3-1.7-4.2-9.3-6.6-10.4-3.3-14.5-8.9-12.1-16.8 1.3-4.5 4.6-7.8 9.8-9.6 4.7-1.7 5.9-1.8 12.3-.4m119.4 2.6c5.6 3.8 9.6 11.8 9.6 19v5.3h-16c-8.8 0-16 .3-16 .8 0 1.7 3.3 5.3 6.1 6.8 3.7 1.8 7.4 1.2 12.3-2.1l3.5-2.4 3.5 4.2c4 4.8 3.8 5.4-3.7 9.2-20.6 10.3-42.2-12.2-31.1-32.5 4.6-8.5 11.9-12.3 21.8-11.6 4.4.3 7 1.2 10 3.3M261 576.1v23.1l-2.2-.6c-1.3-.3-4-.6-6-.6H249v-45h12zm257.7-8.1c3.2 8.2 6 15 6.3 15s2.7-6.2 5.5-13.7c2.7-7.4 5.4-14.2 6-15 .8-1 2.8-1.3 7.2-1.1l6.1.3-5.9 14c-3.3 7.7-7.6 18-9.6 22.8l-3.5 8.8-6-.3-5.9-.3L510 577c-4.9-11.8-9-22.1-9-22.8 0-.8 1.8-1.2 5.9-1.2h6zm-118.3 20.1c1.4 1.7 2.6 3.5 2.6 4.1 0 1.3-6.5 7.8-7.8 7.8-1.5 0-8.2-6.5-8.2-7.9 0-2.2 5.8-7.1 8.3-7.1 1.6 0 3.5 1.2 5.1 3.1"/><path d="M332.3 156.3c-6.1 3.2-51.3 33.1-51.3 33.9 0 1 25.3 18.6 84.5 58.8 28.6 19.4 59.8 40.7 69.3 47.2l17.3 12-19.3 12.9c-10.6 7.1-48.9 32.6-85 56.7-36.2 24-65.8 44-65.8 44.3 0 1 47 32 51.7 34.1 8.4 3.7 12 2.1 42.8-19.3 25.8-17.8 98.3-67.4 113.6-77.6 15.9-10.7 22.3-18.9 26.5-34 2.1-7.5 2.9-25.2 1.6-32.4-1.6-8.5-6.7-20.8-10.9-26.3-5.1-6.7-9.6-10.1-39.8-30.6-14.2-9.6-30-20.4-35.1-24-25.3-17.7-76.6-51.8-82.2-54.7-7.5-3.9-11.9-4.1-17.9-1"/><path d="M242.5 215.7c-21 13.2-63.7 42.8-67.2 46.6-5.3 5.7-9.8 14.7-12.5 24.6-2.7 9.8-2.9 27.5-.4 37.5 2.1 8.7 7.8 19.6 13 24.9 3.9 4 69.8 49.2 72.6 49.9.8.2 1.6-1.1 2.1-3.5 1.3-5.8 4.3-10.8 9.6-15.8 4.1-3.9 49-34.6 94-64.3 6.7-4.5 12.2-8.3 12.2-8.6s-23.6-16.5-52.6-36c-33-22.4-53.9-37.1-56.4-39.8-3.6-4.1-5.6-8.3-7.6-16l-.8-3.2zM424.4 565c-4 1.6-6.4 5.9-6.4 11.2 0 4.3.4 5.4 3.4 8.4 3.6 3.6 8.6 4.5 12.7 2.4 4.5-2.5 6.6-13.2 3.3-17.8-3-4.3-8.5-6.1-13-4.2m47.7.6c-5.4 4.5-4.3 5.4 6.9 5.4 11.1 0 12.2-.8 7.5-5.5-3.4-3.5-10.2-3.5-14.4.1"/></svg>